<svg xmlns="http://www.w3.org/2000/svg" viewBox="0 0 512 512">
  <defs>
    <linearGradient id="bg-gradient" x1="0%" y1="0%" x2="100%" y2="100%">
      <stop offset="0%" style="stop-color:#0f172a;stop-opacity:1" />
      <stop offset="100%" style="stop-color:#1e293b;stop-opacity:1" />
    </linearGradient>
    <linearGradient id="icon-gradient" x1="0%" y1="0%" x2="100%" y2="100%">
      <stop offset="0%" style="stop-color:#f59e0b;stop-opacity:1" />
      <stop offset="100%" style="stop-color:#ea580c;stop-opacity:1" />
    </linearGradient>
  </defs>
  
  <!-- Background -->
  <rect width="512" height="512" rx="128" fill="url(#bg-gradient)" />
  
  <!-- Speedometer / Gauge -->
  <path d="M256 128c-70.7 0-128 57.3-128 128 0 70.7 57.3 128 128 128s128-57.3 128-128c0-70.7-57.3-128-128-128zm0 224c-53 0-96-43-96-96s43-96 96-96 96 43 96 96-43 96-96 96z" fill="url(#icon-gradient)" opacity="0.2"/>
  
  <!-- Gauge Arc -->
  <path d="M150 320c-15-20-22-45-22-70 0-70.7 57.3-128 128-128 70.7 0 128 57.3 128 128 0 25-7 50-22 70" stroke="url(#icon-gradient)" stroke-width="32" stroke-linecap="round" fill="none"/>
  
  <!-- Needle -->
  <path d="M256 256l60-60" stroke="url(#icon-gradient)" stroke-width="24" stroke-linecap="round" />
  <circle cx="256" cy="256" r="24" fill="url(#icon-gradient)" />

  <!-- Checkmark (Success/Quit) overlay or integrated? Let's keep it simple as a gauge for now, maybe add a small flame -->
  <!-- Flame at the bottom center -->
  <path d="M256 340c-10 0-20 5-25 15-5 10-5 25 5 35 10 10 30 10 40 0 10-10 10-25 5-35-5-10-15-15-25-15z" fill="url(#icon-gradient)" opacity="0.8"/>
</svg>
